# xmcd
#
# Track frame offsets: 
#        150
#        19537
#        33700
#        47662
#        62147
#        91550
#        108470
#        125030
#        139625
#        155545
#
# Disc length: 2320 seconds
#
# Revision: 4
# Processed by: cddbd v1.5.2PL0 Copyright (c) Steve Scherf et al.
# Submitted via: ExactAudioCopy v1.0b1
#
DISCID=7f090e0a
DTITLE=Danny Joe Brown And The Danny Joe Brown Band - Danny Joe Brown 
DTITLE=And The Danny Joe Brown Band
DYEAR=1981
DGENRE=Southern Rock
TTITLE0=Sundance
TTITLE1=Nobody Walks On Me
TTITLE2=The Alamo
TTITLE3=Two Days Home
TTITLE4=Edge Of Sundown
TTITLE5=Beggar Man
TTITLE6=Run For Your Life
TTITLE7=Hear My Song
TTITLE8=Gambler's Dream
TTITLE9=Hit The Road
EXTD=
EXTT0=
EXTT1=
EXTT2=
EXTT3=
EXTT4=
EXTT5=
EXTT6=
EXTT7=
EXTT8=
EXTT9=
PLAYORDER=
